<svg width="31" height="31" viewBox="0 0 31 31" fill="none" xmlns="http://www.w3.org/2000/svg">
<g id="cricket.ball.fill">
<g id="Group">
<path id="Vector" d="M0.197754 15.6219C0.197754 18.0846 0.802356 20.3997 1.89359 22.4642L4.44471 19.9131C4.78388 19.574 5.30001 19.574 5.63917 19.9131C5.97834 20.2522 5.99309 20.7684 5.63917 21.1223L2.77837 23.9831C3.14703 24.4992 3.51569 25.0005 3.94333 25.4577L25.0896 4.32615C24.6177 3.89851 24.1017 3.5151 23.6003 3.16118L20.71 6.05148C20.3708 6.39065 19.84 6.3759 19.5007 6.05148C19.1616 5.7123 19.1616 5.19619 19.5007 4.84228L22.0666 2.29115C20.0169 1.18517 17.6869 0.580566 15.2243 0.580566C7.01058 0.580566 0.197754 7.3934 0.197754 15.6219ZM18.4538 8.30767L16.4335 10.3279C16.0943 10.6671 15.5634 10.6524 15.2243 10.3279C14.8999 9.98876 14.8852 9.44315 15.2243 9.11873L17.2593 7.09847C17.5985 6.77406 18.1294 6.75931 18.4538 7.09847C18.7929 7.43764 18.7929 7.9685 18.4538 8.30767ZM14.1921 12.5841L12.1571 14.6043C11.8327 14.9288 11.3018 14.9288 10.9626 14.6043C10.6235 14.2652 10.6235 13.7343 10.9626 13.3952L12.9829 11.3749C13.3221 11.0358 13.853 11.0358 14.1921 11.3749C14.5165 11.6993 14.5312 12.2597 14.1921 12.5841ZM9.91563 16.8459L7.91012 18.866C7.55621 19.2053 7.04008 19.1906 6.70091 18.866C6.36175 18.5269 6.36175 18.0108 6.70091 17.6716L8.70642 15.6366C9.04559 15.2974 9.57645 15.3122 9.91563 15.6366C10.24 15.9758 10.2695 16.5066 9.91563 16.8459ZM15.239 30.6631C23.4676 30.6631 30.2803 23.8357 30.2803 15.6219C30.2803 13.174 29.6758 10.8441 28.5846 8.7943L26.0334 11.3307C25.6795 11.6846 25.1782 11.6699 24.8389 11.3307C24.5145 10.9915 24.4851 10.4754 24.8389 10.1215L27.6998 7.27542C27.3458 6.75931 26.9771 6.25793 26.5495 5.80079L5.40323 26.9324C5.87512 27.3452 6.3765 27.7286 6.87786 28.0826L9.76816 25.1923C10.1221 24.8236 10.6382 24.8532 10.9774 25.1923C11.3165 25.5314 11.3313 26.0329 10.9774 26.3867L8.39674 28.9674C10.4612 30.0439 12.7764 30.6631 15.239 30.6631ZM23.7773 13.5721L21.7717 15.6071C21.4326 15.9463 20.9017 15.9315 20.5625 15.6071C20.2381 15.2533 20.2234 14.7371 20.5625 14.398L22.5828 12.3777C22.922 12.0385 23.4381 12.0385 23.7773 12.3777C24.1311 12.7021 24.1164 13.233 23.7773 13.5721ZM19.5156 17.8486L17.4953 19.8541C17.1562 20.2081 16.6252 20.2081 16.2861 19.8541C15.9616 19.5297 15.9469 18.9841 16.2861 18.6449L18.321 16.6394C18.6455 16.315 19.1912 16.315 19.5156 16.6394C19.8547 16.9785 19.8547 17.4947 19.5156 17.8486ZM15.2538 22.1103L13.2189 24.1305C12.8796 24.455 12.3635 24.4698 12.0244 24.1305C11.6852 23.7914 11.6852 23.2605 12.0244 22.9213L14.0446 20.901C14.3837 20.5619 14.9146 20.5914 15.2538 20.901C15.5783 21.255 15.593 21.7859 15.2538 22.1103Z" fill="#CBEA7B"/>
</g>
</g>
</svg>
