<svg width="60" height="60" viewBox="0 0 60 60" fill="none" xmlns="http://www.w3.org/2000/svg">
<rect x="0.5" y="0.5" width="59" height="59" rx="7.5" fill="#F7FCE9"/>
<rect x="0.5" y="0.5" width="59" height="59" rx="7.5" stroke="#EEF8D3"/>
<path d="M40 26.8622C40 28.4087 39.4062 29.8941 38.3458 30.9929C35.9049 33.523 33.5374 36.1613 31.0053 38.5997C30.4249 39.1505 29.5042 39.1304 28.9488 38.5547L21.6538 30.9929C19.4487 28.7072 19.4487 25.0172 21.6538 22.7316C23.8804 20.4235 27.5079 20.4235 29.7346 22.7316L29.9998 23.0064L30.2648 22.7317C31.3324 21.6245 32.7864 21 34.3053 21C35.8242 21 37.2781 21.6244 38.3458 22.7316C39.4063 23.8304 40 25.3158 40 26.8622Z" stroke="#4C4C4C" stroke-width="2" stroke-linejoin="round"/>
</svg>
