<svg width="36" height="36" viewBox="0 0 36 36" fill="none" xmlns="http://www.w3.org/2000/svg">
<g id="Icon">
<path id="Vector (Stroke)" fill-rule="evenodd" clip-rule="evenodd" d="M5.37061 17.6813C5.3706 16.9515 5.96216 16.36 6.69188 16.36L25.4327 16.36L18.108 9.38473C17.582 8.87896 17.5656 8.04253 18.0714 7.51653C18.5772 6.99052 19.4136 6.97412 19.9396 7.47989L29.6289 16.7288C29.888 16.9779 30.0344 17.3218 30.0344 17.6812C30.0344 18.0407 29.888 18.3846 29.6289 18.6337L19.9396 27.8826C19.4136 28.3884 18.5772 28.372 18.0714 27.846C17.5656 27.32 17.582 26.4835 18.108 25.9778L25.4327 19.0025L6.69188 19.0025C5.96216 19.0025 5.37061 18.411 5.37061 17.6813Z" fill="white"/>
</g>
</svg>
